<svg xmlns="http://www.w3.org/2000/svg" width="100" height="100" viewBox="0 0 100 100" fill="none">
<path fill-rule="evenodd" clip-rule="evenodd" d="M75.9354 0.602615C69.7554 0 61.9781 0 52 0H48C25.3726 0 14.0589 0 7.02944 7.02944C3.5148 10.5441 1.75745 15.1297 0.87875 21.665C0.78151 22.3881 0.695031 23.1352 0.618121 23.9073C0 30.1125 0 37.9371 0 48V52C0 74.6274 0 85.9411 7.02944 92.9706C10.5441 96.4852 15.1297 98.2425 21.665 99.1212C28.2 100 36.685 100 48 100H52C64.9034 100 74.1265 100 80.9743 98.6968C86.1366 97.7145 89.9493 95.9918 92.9706 92.9706C96.4852 89.4559 98.2425 84.8703 99.1212 78.335C100 71.8 100 63.315 100 52V48C100 35.0966 100 25.8735 98.6968 19.0257C97.7145 13.8634 95.9918 10.0507 92.9706 7.02944C89.4559 3.5148 84.8703 1.75745 78.335 0.87875C77.5628 0.77492 76.7635 0.683358 75.9354 0.602615ZM95.6874 28C95.5649 25.8877 95.3943 23.9638 95.157 22.1985C94.3379 16.1065 92.7898 12.5055 90.1421 9.85786C87.4945 7.21022 83.8935 5.66206 77.8015 4.84301C71.5945 4.00849 63.4268 4 52 4H48C36.5732 4 28.4055 4.00849 22.1985 4.84301C16.1065 5.66206 12.5055 7.21022 9.85786 9.85786C7.21022 12.5055 5.66206 16.1065 4.84301 22.1985C4.60567 23.9638 4.43515 25.8877 4.31263 28H95.6874ZM95.8059 69.5446C95.6833 72.6483 95.4833 75.3748 95.157 77.8015C94.3379 83.8935 92.7898 87.4945 90.1421 90.1421C87.4945 92.7898 83.8935 94.3379 77.8015 95.157C71.5945 95.9915 63.4268 96 52 96H48C36.5732 96 28.4055 95.9915 22.1985 95.157C16.1065 94.3379 12.5055 92.7898 9.85786 90.1421C7.21022 87.4945 5.66206 83.8935 4.84301 77.8015C4.51674 75.3748 4.31673 72.6483 4.19413 69.5446C16.764 74.8339 32.7279 78 50 78C67.2721 78 83.236 74.8339 95.8059 69.5446ZM69.4504 65.8004C77.569 65.8004 84.1504 59.219 84.1504 51.1004C84.1504 42.9818 77.569 36.4004 69.4504 36.4004C61.3318 36.4004 54.7504 42.9818 54.7504 51.1004C54.7504 59.219 61.3318 65.8004 69.4504 65.8004ZM69.4503 56.5996C72.4879 56.5996 74.9503 54.1372 74.9503 51.0996C74.9503 48.062 72.4879 45.5996 69.4503 45.5996C66.4128 45.5996 63.9503 48.062 63.9503 51.0996C63.9503 54.1372 66.4128 56.5996 69.4503 56.5996ZM30.8504 43.9008L37.9504 36.8008L45.1504 44.0008L38.0504 51.1008L45.1504 58.2008L37.9504 65.4008L30.8504 58.3008L23.7504 65.4008L16.5504 58.2008L23.6504 51.1008L16.5504 44.0008L23.7504 36.8008L30.8504 43.9008Z" fill="#fff"/>
</svg>